<?xml version="1.0" encoding="UTF-8"?>
<svg version="1.1" xmlns="http://www.w3.org/2000/svg" width="1240" height="1240">
<path d="M0 0 C2.41928386 0.00543808 4.83855795 0.00780673 7.25784683 0.00987244 C30.44220565 0.04072535 53.40795419 0.51005983 76.44519424 3.31785583 C77.69784073 3.45707458 78.95048721 3.59629333 80.24109268 3.73973083 C174.561735 14.23870468 267.97696931 48.10175321 353.93933487 122.92967224 C355.48753889 124.35689145 357.04998292 125.766879 358.61706924 127.17332458 C363.51486382 131.5798257 368.25111018 135.9865413 372.48816299 141.04832458 C374.59124288 143.48722561 376.7872476 145.81534871 379.00232315 148.15208435 C385.97821317 155.53139691 392.31579266 163.22902019 398.44519424 171.31785583 C399.44501341 172.62137997 400.44501802 173.92476189 401.44519424 175.22801208 C455.94715067 246.62905755 485.72202071 333.98823021 505.59226588 529.13496114 C505.59243781 532.73736132 505.59837057 536.33975326 505.60350674 539.94214916 C505.61276098 547.06227526 505.6167425 554.18239515 505.61902571 561.30252651 C505.62200632 569.84030473 505.63071384 578.37807487 505.63943999 586.91584881 C505.66020033 607.53329457 505.67073736 628.15074168 505.6795696 648.76819544 C505.68378457 658.52492604 505.68900511 668.28165604 505.69425413 678.03838613 C505.71212906 711.45488011 505.72712759 744.87137427 505.73457432 778.28787231 C505.73504907 780.38211093 505.73552496 782.47634955 505.73600198 784.57058817 C505.73635654 786.12833618 505.73635654 786.12833618 505.73671827 787.71755384 C505.73791941 792.97868966 505.73913489 798.23982548 505.74036026 803.5009613 C505.74060041 804.54502253 505.74084056 805.58908375 505.74108799 806.66478319 C505.74899064 840.55770643 505.77245016 874.45059479 505.8049162 908.34350279 C505.83920439 944.20415354 505.85892401 980.06478386 505.86221856 1015.92545128 C505.86263609 1019.86032995 505.86311565 1023.79520862 505.86364174 1027.73008728 C505.86376493 1028.69891691 505.86388812 1029.66774654 505.86401505 1030.66593464 C505.86634711 1046.25696778 505.88200606 1061.84796031 505.90248359 1077.43897898 C505.92272551 1093.0984836 505.9282264 1108.75793938 505.91871295 1124.41745466 C505.91349338 1133.72013639 505.91939735 1143.02265562 505.94124762 1152.32531399 C505.95474166 1158.53958264 505.95369113 1164.75373926 505.94084567 1170.96800899 C505.93394021 1174.50805078 505.93330932 1178.04778156 505.95040575 1181.58779573 C505.965464 1185.40494051 505.95589262 1189.22126677 505.94017887 1193.03839111 C505.95551218 1194.678681 505.95551218 1194.678681 505.97115526 1196.35210806 C505.87097847 1207.48587136 502.27549952 1216.57639458 495.44519424 1225.31785583 C494.72783096 1226.24211365 494.72783096 1226.24211365 493.99597549 1227.18504333 C488.20040794 1233.75432645 477.42048167 1239.86096421 468.50577984 1240.44489034 C467.82299763 1240.44585306 467.14021542 1240.44681578 466.43674284 1240.44780767 C465.24568628 1240.4531003 465.24568628 1240.4531003 464.03056797 1240.45849985 C463.16240205 1240.45730207 462.29423613 1240.4561043 461.39976215 1240.45487022 C460.470436 1240.45752205 459.54110985 1240.46017388 458.58362231 1240.46290606 C455.44624742 1240.47061114 452.30891159 1240.4711587 449.17152786 1240.47175598 C446.90869968 1240.47576981 444.64587221 1240.4802079 442.38304561 1240.48503554 C436.14631592 1240.49701584 429.90959397 1240.50265287 423.67285502 1240.50721669 C417.64299066 1240.51255666 411.61313495 1240.52253436 405.58327644 1240.53222615 C389.4240798 1240.55785649 373.26487841 1240.57289236 357.10566728 1240.58573662 C351.75294059 1240.58999154 346.40021424 1240.59455728 341.04748797 1240.59931993 C312.58397556 1240.62458158 284.12046257 1240.64662871 255.65694141 1240.65904808 C249.06202632 1240.66196939 242.46711125 1240.66493691 235.8721962 1240.66795349 C235.05286413 1240.6683244 234.23353206 1240.66869531 233.38937175 1240.66907746 C206.83094341 1240.68123013 180.27258138 1240.71216935 153.71418418 1240.75387502 C126.40841122 1240.79667606 99.10267328 1240.82329083 71.79686586 1240.82852279 C67.93889323 1240.82926322 64.08092065 1240.8301739 60.22294807 1240.83118057 C59.08404268 1240.83146649 59.08404268 1240.83146649 57.92212909 1240.83175819 C45.71059046 1240.83526964 33.49913495 1240.85555775 21.28762683 1240.88197721 C9.00815195 1240.90814269 -3.27122704 1240.91584047 -15.55072581 1240.90487592 C-22.2013913 1240.89943113 -28.85184846 1240.90259541 -35.502491 1240.92734146 C-41.59413574 1240.9498183 -47.6853266 1240.94910551 -53.77697922 1240.93013759 C-55.97762097 1240.92733545 -58.1782934 1240.93294785 -60.3788858 1240.94795053 C-77.88689819 1241.05998857 -90.35532679 1238.99590157 -103.48449326 1226.47801208 C-110.8128338 1218.78797233 -114.6681571 1209.4057576 -114.69524765 1198.8583374 C-114.69970433 1197.886823 -114.69970433 1197.886823 -114.70425105 1196.89568204 C-114.71292235 1194.72430042 -114.7144454 1192.55297409 -114.71593857 1190.38157654 C-114.72057047 1188.82144555 -114.72559563 1187.26131569 -114.73098373 1185.70118713 C-114.74413543 1181.44306362 -114.75056629 1177.18495595 -114.75499439 1172.92681527 C-114.75794049 1170.23473867 -114.76204961 1167.54266617 -114.76649857 1164.85059166 C-114.7802238 1156.34113375 -114.7898475 1147.83168549 -114.79370046 1139.32221729 C-114.79766704 1130.6168562 -114.80958251 1121.91160691 -114.83605576 1113.20628357 C-115.12084821 1017.46258811 -112.13702868 921.19628035 -39.55480576 681.31785583 C-38.83937607 680.54055115 -38.12394638 679.76324646 -37.38683701 678.96238708 C-3.77235362 643.32977336 49.00203662 635.15957622 95.44519424 632.31785583 C96.84463272 632.23108582 96.84463272 632.23108582 98.27234268 632.14256287 C127.24241003 630.45289296 156.28467956 631.12102984 185.26459885 632.10640526 C210.79765938 632.97446341 236.31228216 633.56204691 261.8611908 633.62290955 C264.08554243 633.63020127 266.30978051 633.6433811 268.53409195 633.65843201 C317.84057808 633.96877822 375.74665469 630.39413205 413.78503799 595.14988708 C425.88359594 582.80315359 431.36426752 566.85906496 431.75769424 549.75535583 C431.18362804 530.18926605 426.16040272 512.95952865 411.73035049 499.19676208 C397.39628234 487.41097272 379.73330058 483.91640689 361.62097549 484.15769958 C360.52878204 484.16339966 359.43658859 484.16909973 358.31129837 484.17497253 C355.99048699 484.18751452 353.66969495 484.2042523 351.3489418 484.22492981 C345.26523085 484.27647266 339.18143241 484.28809894 333.09753799 484.30223083 C331.30518723 484.30720833 331.30518723 484.30720833 329.47662735 484.31228638 C266.94263847 484.44591991 189.00483501 483.7416844 141.19519424 437.56785583 C123.37727682 419.58756195 117.93946796 397.33556095 116.50769424 372.69285583 C114.21710065 333.92914767 101.48599418 301.36165281 74.44519424 273.31785583 C73.74136612 272.55086365 73.03753799 271.78387146 72.31238174 270.99363708 C17.28250987 212.72055983 -82.49756047 201.17661418 -158.35309982 198.89237976 C-233.57958978 196.80177529 -309.02723426 203.35567269 -382.86730576 217.94285583 C-383.55439621 218.07697876 -384.24148666 218.21110168 -384.94939804 218.34928894 C-419.56003037 225.17085386 -454.5127438 239.3884346 -474.92980576 269.69285583 C-520.09232856 339.47070475 -492.94990089 443.71890273 -475.47610092 526.7170105 C-468.78627513 557.92406141 -461.6706912 589.03270981 -454.49230576 620.13035583 C-435.20031912 703.72258625 -416.71167895 787.5454045 -386.30480576 1018.81785583 C-386.22767349 1019.80983978 -386.15054123 1020.80182373 -386.07107162 1021.8238678 C-382.98528719 1062.0845063 -382.17697036 1102.43020455 -382.18420029 1142.79466248 C-382.18440781 1148.89716713 -382.15653602 1154.99922847 -382.12265587 1161.1016264 C-382.10039506 1165.8896594 -382.09636166 1170.67758256 -382.09741974 1175.465662 C-382.09508466 1177.71850502 -382.08638173 1179.97135205 -382.070755 1182.22414207 C-381.9595739 1199.81525756 -383.06207797 1214.55602923 -395.36339951 1228.34519958 C-402.58766504 1235.20900281 -412.34522538 1240.430856 -422.42036915 1240.45207691 C-423.89561624 1240.45876368 -423.89561624 1240.45876368 -425.4006663 1240.46558553 C-426.47875903 1240.46540117 -427.55685177 1240.4652168 -428.66761398 1240.46502686 C-430.38844134 1240.47054189 -430.38844134 1240.47054189 -432.1440329 1240.47616833 C-435.32900903 1240.48528579 -438.51395488 1240.48990282 -441.69894183 1240.49255764 C-445.13402328 1240.49646501 -448.56908988 1240.50604311 -452.00416183 1240.51477051 C-460.30072511 1240.53452371 -468.59728959 1240.54460012 -476.8938705 1240.5534983 C-480.80302011 1240.55788347 -484.71216837 1240.56324972 -488.62131691 1240.56848717 C-501.6202418 1240.58549904 -514.61916585 1240.59999222 -527.61810017 1240.60723591 C-530.99063811 1240.60914574 -534.36317604 1240.61106608 -537.73571396 1240.61302185 C-538.5739199 1240.61350559 -539.41212585 1240.61398933 -540.27573197 1240.61448773 C-553.84779426 1240.62278433 -567.41976831 1240.64811517 -580.99179209 1240.68060253 C-594.9329366 1240.71370073 -608.8740363 1240.7316872 -622.8152203 1240.73488015 C-630.63979784 1240.7370428 -638.46424674 1240.74575533 -646.28878593 1240.77134132 C-652.95397495 1240.79308618 -659.61900406 1240.80108025 -666.28422452 1240.79137454 C-669.68218626 1240.78684049 -673.07955183 1240.79086054 -676.47751236 1240.80813599 C-680.16965534 1240.8258537 -683.86096807 1240.81874799 -687.55311203 1240.80560303 C-688.61558971 1240.81657227 -689.6780674 1240.82754152 -690.77274138 1240.83884317 C-701.81799904 1240.74423078 -710.88938767 1237.08874335 -719.55480576 1230.31785583 C-720.47906357 1229.60049255 -720.47906357 1229.60049255 -721.42199326 1228.86863708 C-727.73576314 1223.29848899 -733.01825309 1213.66691521 -734.55480576 1205.31785583 C-734.64970428 1202.6860079 -734.69150736 1200.08103338 -734.68475759 1197.44936281 C-734.68760645 1196.24414639 -734.68760645 1196.24414639 -734.69051286 1195.01458215 C-734.69569473 1192.29996103 -734.69371791 1189.58539139 -734.69182014 1186.87076664 C-734.6940754 1184.90538519 -734.69676651 1182.9400042 -734.69985598 1180.97462389 C-734.70711237 1175.53622678 -734.70808525 1170.09784344 -734.70807876 1164.65944214 C-734.70914568 1158.75698147 -734.71593318 1152.85452698 -734.72198546 1146.9520697 C-734.73178297 1136.59455261 -734.73781246 1126.23703747 -734.74130249 1115.8795166 C-734.74505521 1104.76260086 -734.75092641 1093.64568936 -734.75938034 1082.52877617 C-734.75991143 1081.8273158 -734.76044253 1081.12585543 -734.76098972 1080.40313868 C-734.76315639 1077.54630727 -734.76533302 1074.68947586 -734.76752365 1071.83264447 C-734.79403814 1037.18365932 -734.80959294 1002.53467191 -734.82268654 967.88567946 C-734.82693576 956.65043602 -734.83150338 945.41519275 -734.83626986 934.17994952 C-734.86117755 875.33273411 -734.88324173 816.48551821 -734.89546024 757.63829866 C-734.89635761 753.32992526 -734.89727231 749.02155185 -734.89818797 744.71317845 C-734.89836959 743.85852828 -734.8985512 743.0038781 -734.89873831 742.12332944 C-734.900581 733.46442819 -734.90244686 724.80552694 -734.9043364 716.1466257 C-734.90471445 714.41048184 -734.90509075 712.67433797 -734.90546529 710.93819411 C-734.91749519 655.18027874 -734.94718303 599.42239457 -734.9888804 543.66449391 C-735.01882883 503.60534806 -735.04645789 463.54620862 -735.05615807 423.48705196 C-735.05635862 422.66326083 -735.05655918 421.8394697 -735.05676581 420.9907152 C-735.06111637 402.90655659 -735.06406213 384.82239802 -735.06569232 366.73823897 C-735.06636868 359.46188522 -735.0672242 352.1855315 -735.06813049 344.90917778 C-735.06822459 344.11282195 -735.06831868 343.31646613 -735.06841563 342.4959783 C-735.07152816 316.84054872 -735.0900389 291.18515885 -735.11648046 265.52974357 C-735.14302646 239.68783591 -735.15377259 213.84597256 -735.14274448 188.00405213 C-735.14122295 184.43254983 -735.13987752 180.86104747 -735.13863754 177.28954506 C-735.13838781 176.58943541 -735.13813809 175.88932577 -735.13788079 175.16800068 C-735.13438666 164.08506966 -735.14769301 153.00222512 -735.16801527 141.91931486 C-735.18765346 131.019595 -735.18902453 120.1199785 -735.17228899 109.22025067 C-735.16385554 103.39025297 -735.16337181 97.56055102 -735.18490045 91.7305804 C-735.20433444 86.42530418 -735.20068806 81.1205604 -735.17874696 75.81529854 C-735.17488747 73.90945609 -735.17938241 72.00357336 -735.19333398 70.09777806 C-735.30472521 53.82554567 -732.62084468 41.71704971 -720.90246201 29.61082458 C-711.43737558 20.81386191 -700.31351958 18.01153143 -687.77131271 18.0504303 C-686.69574071 18.04589918 -685.6201687 18.04136807 -684.5120036 18.03669965 C-680.91335277 18.02405474 -677.31485327 18.02567612 -673.71618271 18.02732849 C-671.13366629 18.02134326 -668.55115165 18.01453773 -665.96863937 18.00697327 C-659.68433262 17.99038711 -653.4000634 17.98486477 -647.11573658 17.98374851 C-642.00444481 17.98279677 -636.89316538 17.97868017 -631.78187752 17.97234726 C-617.27490875 17.95474024 -602.76796953 17.94550738 -588.26099 17.94700821 C-587.47953367 17.94708812 -586.69807734 17.94716803 -585.89294052 17.94725037 C-584.71931643 17.94737301 -584.71931643 17.94737301 -583.52198275 17.94749813 C-570.84962505 17.94831055 -558.17738634 17.92918243 -545.50506303 17.90097363 C-532.47799206 17.87220518 -519.45097904 17.85843556 -506.42387551 17.86016119 C-499.11631028 17.86082379 -491.80886976 17.85538869 -484.50133324 17.83380508 C-477.62547938 17.81362598 -470.74989235 17.81430742 -463.87402534 17.82883835 C-461.3554038 17.830926 -458.83676575 17.82622824 -456.31817245 17.81411743 C-452.86954759 17.79861329 -449.42182338 17.80800831 -445.97321701 17.82337952 C-444.9857356 17.81309239 -443.99825418 17.80280526 -442.98084909 17.79220641 C-430.31464266 17.91624769 -419.74499484 22.56301023 -410.55480576 31.19676208 C-401.92590419 40.40216354 -398.65395462 51.24345285 -397.67980576 63.56785583 C-396.37798393 77.27581589 -392.45646044 87.18820544 -382.11730576 96.63035583 C-372.59271542 104.33972156 -361.05799042 106.83699794 -348.98058701 106.17723083 C-338.05538745 104.51587818 -328.32890544 98.14724669 -319.69152451 91.60301208 C-306.10648676 81.70606678 -291.25367923 73.42274323 -276.55480576 65.31785583 C-275.66873642 64.82817322 -274.78266708 64.3384906 -273.86974716 63.83396912 C-214.56282428 31.32395699 -147.84262245 12.94917781 -80.99230576 4.50535583 C-80.21818344 4.40607788 -79.44406113 4.30679993 -78.64648056 4.20451355 C-52.47371153 0.8929454 -26.34918639 -0.06161865 0 0 Z " fill="#A557C6" transform="translate(734.5548057556152,-0.3178558349609375)"/>
<path d="M0 0 C19.56072383 16.29537025 32.36725782 37.8049157 35.875 63.1875 C37.88704857 89.6897459 32.75670531 115.43951863 15.33984375 136.2109375 C12.61411844 139.30220204 9.76903273 142.25321646 6.875 145.1875 C6.08222656 145.99316406 5.28945313 146.79882812 4.47265625 147.62890625 C-12.62034204 163.98244039 -34.99548757 171.61314254 -58.375 171.5 C-59.57141113 171.49508545 -60.76782227 171.4901709 -62.00048828 171.48510742 C-70.43209692 171.37315293 -78.06022063 170.81225759 -86.125 168.1875 C-87.18976563 167.8471875 -88.25453125 167.506875 -89.3515625 167.15625 C-101.86051856 162.73781206 -113.22693669 156.02037438 -123.125 147.1875 C-124.35476563 146.09888672 -124.35476563 146.09888672 -125.609375 144.98828125 C-142.83243112 128.8082363 -153.56788006 105.12968982 -154.328125 81.47265625 C-154.72966929 54.7098574 -147.40195762 30.23217718 -129.125 10.1875 C-128.45082031 9.42050781 -127.77664063 8.65351563 -127.08203125 7.86328125 C-94.18212451 -27.50566165 -37.27400497 -28.88735385 0 0 Z " fill="#A556C6" transform="translate(729.125,331.8125)"/>
</svg>
